<svg xmlns="http://www.w3.org/2000/svg" viewBox="0 0 1200 220" role="img" aria-labelledby="title description">
  <title id="title">Infrastructure topology frame</title>
  <desc id="description">A restrained network topology drawn in slate and muted copper on a charcoal background.</desc>

  <rect width="1200" height="220" rx="12" fill="#0d1117"/>
  <rect x="1" y="1" width="1198" height="218" rx="11" fill="none" stroke="#30363d" stroke-width="2"/>

  <g fill="none" stroke="#30363d" stroke-width="1">
    <path d="M44 48h132l28 28h146"/>
    <path d="M44 172h132l28-28h146"/>
    <path d="M1156 48h-132l-28 28H850"/>
    <path d="M1156 172h-132l-28-28H850"/>
    <path d="M350 76h100l34 34h232l34-34h100"/>
    <path d="M350 144h100l34-34"/>
    <path d="M716 110l34 34h100"/>
  </g>

  <g fill="#161b22" stroke="#6e7681" stroke-width="2">
    <circle cx="204" cy="76" r="6"/>
    <circle cx="204" cy="144" r="6"/>
    <circle cx="484" cy="110" r="7"/>
    <circle cx="716" cy="110" r="7"/>
    <circle cx="996" cy="76" r="6"/>
    <circle cx="996" cy="144" r="6"/>
  </g>

  <g fill="#0d1117" stroke="#c4775a" stroke-width="2">
    <rect x="36" y="40" width="16" height="16" rx="3" transform="rotate(45 44 48)"/>
    <rect x="592" y="102" width="16" height="16" rx="3" transform="rotate(45 600 110)"/>
    <rect x="1148" y="40" width="16" height="16" rx="3" transform="rotate(45 1156 48)"/>
    <circle cx="600" cy="110" r="3" fill="#c4775a"/>
  </g>

  <g fill="none" stroke="#484f58" stroke-width="2">
    <path d="M24 84V24h60"/>
    <path d="M1116 24h60v60"/>
    <path d="M24 136v60h60"/>
    <path d="M1116 196h60v-60"/>
  </g>
</svg>
